#!OML:ASF F:\VICON\USERDATA\INSTALL\rory3\rory3.ASF
:FULLY-SPECIFIED
:DEGREES
2540
root -0.183261 17.301 -1.48638 25.7219 -2.54524 1.43084
lowerback 13.0464 0.173001 1.25097
upperback -1.88006 0.579531 1.57007
thorax -9.37281 0.260177 0.856358
lowerneck -19.0324 -0.908426 -8.456
upperneck 2.3035 0.738977 -0.0337531
head 3.654 0.258036 1.38736
rclavicle 1.15295e-014 4.77083e-015
rhumerus 31.6283 -43.5785 -126.602
rradius 14.4146
rwrist 126.548
rhand -51.5975 47.4827
rfingers 7.12502
rthumb -24.1216 18.9791
lclavicle 1.15295e-014 4.77083e-015
lhumerus 44.551 -1.63019 79.0327
lradius 130.161
lwrist 8.15213
lhand 20.6105 39.2848
lfingers 7.12502
lthumb 45.1034 62.7435
rfemur -40.8805 11.9293 10.7914
rtibia 26.0429
rfoot -10.5474 -11.4167
rtoes -27.3465
lfemur -39.7389 -12.2424 -11.2004
ltibia 25.1817
lfoot -10.8878 11.9057
ltoes -23.019
2541
root -0.184294 17.3015 -1.48669 25.6904 -2.61105 1.43823
lowerback 13.0807 0.228696 1.26015
upperback -1.91708 0.653744 1.53509
thorax -9.43307 0.294057 0.798261
lowerneck -18.9466 -0.89418 -8.45357
upperneck 2.36291 0.755801 -0.101383
head 3.65956 0.260765 1.36727
rclavicle -1.03368e-014 -1.59028e-014
rhumerus 31.643 -43.6938 -126.651
rradius 14.2537
rwrist 126.443
rhand -51.4902 47.4677
rfingers 7.12502
rthumb -24.0187 18.9506
lclavicle -1.03368e-014 -1.59028e-014
lhumerus 45.6883 -1.34501 78.6141
lradius 130.792
lwrist 7.65002
lhand 20.1816 39.0754
lfingers 7.12502
lthumb 44.7042 62.6906
rfemur -40.8508 11.9795 10.7565
rtibia 26.0764
rfoot -10.8437 -11.3787
rtoes -26.3196
lfemur -39.6928 -12.1726 -11.2625
ltibia 25.1922
lfoot -10.6574 11.8788
ltoes -23.9345
2542
root -0.184868 17.3015 -1.48669 25.6811 -2.65084 1.41199
lowerback 13.1051 0.305701 1.35407
upperback -1.98796 0.769781 1.48819
thorax -9.52372 0.342831 0.670671
lowerneck -18.6466 -0.874707 -8.38188
upperneck 2.27804 0.742747 -0.225195
head 3.58983 0.251472 1.31592
rclavicle 1.98785e-015 -2.38542e-015
rhumerus 31.6294 -43.957 -126.605
rradius 14.1456
rwrist 126.484
rhand -51.6024 47.9233
rfingers 7.12502
rthumb -24.1263 19.4203
lclavicle 1.98785e-015 -2.38542e-015
lhumerus 46.7543 -1.19323 78.2083
lradius 131.347
lwrist 7.10709
lhand 19.8021 38.579
lfingers 7.12502
lthumb 44.3507 62.3298
rfemur -40.8599 11.9807 10.7894
rtibia 26.0996
rfoot -10.9516 -11.3519
rtoes -25.9307
lfemur -39.6707 -12.1661 -11.2399
ltibia 25.1912
lfoot -10.674 11.9909
ltoes -24.12
2543
root -0.1847 17.3005 -1.48695 25.672 -2.64738 1.39981
lowerback 13.0925 0.324686 1.39533
upperback -1.97773 0.803261 1.50887
thorax -9.50514 0.357388 0.662523
lowerneck -18.5309 -0.803739 -8.32631
upperneck 2.16575 0.822968 -0.40116
head 3.53566 0.285662 1.25847
rclavicle 6.36111e-015 1.59028e-015
rhumerus 31.6803 -43.918 -126.692
rradius 14.1994
rwrist 126.598
rhand -51.7139 47.9808
rfingers 7.12502
rthumb -24.2332 19.492
lclavicle 6.36111e-015 1.59028e-015
lhumerus 47.677 -0.883722 77.7154
lradius 132.038
lwrist 6.35073
lhand 19.3258 37.9221
lfingers 7.12502
lthumb 43.9065 61.8398
rfemur -40.8428 11.9771 10.8057
rtibia 26.1024
rfoot -10.8676 -11.3165
rtoes -26.0647
lfemur -39.6542 -12.1613 -11.2312
ltibia 25.1785
lfoot -10.6366 12.0502
ltoes -24.5991
2544
root -0.185497 17.3021 -1.48681 25.6418 -2.64189 1.43459
lowerback 13.1062 0.325193 1.36307
upperback -1.9564 0.802728 1.55478
thorax -9.4909 0.360413 0.730082
lowerneck -18.5645 -0.720983 -8.31136
upperneck 2.16972 0.947696 -0.599046
head 3.53863 0.335964 1.20443
rclavicle -5.56597e-015 3.18055e-015
rhumerus 31.6503 -43.7971 -126.744
rradius 14.3013
rwrist 126.62
rhand -51.7328 47.7294
rfingers 7.12502
rthumb -24.2514 19.243
lclavicle -5.56597e-015 3.18055e-015
lhumerus 48.4512 -0.521378 77.1946
lradius 132.749
lwrist 5.49074
lhand 18.8283 37.1755
lfingers 7.12502
lthumb 43.4421 61.2634
rfemur -40.8243 11.9361 10.8042
rtibia 26.083
rfoot -10.5832 -11.2856
rtoes -27.4126
lfemur -39.6154 -12.1667 -11.2787
ltibia 25.1723
lfoot -10.5828 12.05
ltoes -25.0545
2545
root -0.186108 17.302 -1.48715 25.6242 -2.67695 1.48178
lowerback 13.1069 0.349837 1.30613
upperback -1.96251 0.826937 1.56052
thorax -9.49897 0.375287 0.763365
lowerneck -18.5324 -0.65564 -8.2888
upperneck 2.14334 1.03323 -0.704275
head 3.52336 0.373603 1.17487
rclavicle -3.97569e-016 -9.54166e-015
rhumerus 31.5066 -43.8436 -126.666
rradius 14.3311
rwrist 126.59
rhand -51.73 47.5539
rfingers 7.12502
rthumb -24.2486 19.0673
lclavicle -3.97569e-016 -9.54166e-015
lhumerus 49.2088 -0.251908 76.6104
lradius 133.319
lwrist 4.51663
lhand 18.4001 36.6713
lfingers 7.12502
lthumb 43.0419 60.9024
rfemur -40.8548 11.9508 10.7423
rtibia 26.0723
rfoot -10.4444 -11.3089
rtoes -28.044
lfemur -39.5876 -12.1606 -11.3435
ltibia 25.1608
lfoot -10.6729 12.0024
ltoes -24.3599
2546
root -0.184692 17.301 -1.48671 25.6449 -2.69234 1.43734
lowerback 13.0756 0.388469 1.39118
upperback -1.97781 0.892465 1.56509
thorax -9.49678 0.402264 0.706589
lowerneck -18.4694 -0.622063 -8.26048
upperneck 2.04962 1.06766 -0.777067
head 3.48417 0.390319 1.15022
rclavicle 7.55382e-015 3.18055e-015
rhumerus 31.4904 -43.9163 -126.65
rradius 14.267
rwrist 126.591
rhand -51.7446 47.2241
rfingers 7.12502
rthumb -24.2627 18.7393
lclavicle 7.55382e-015 3.18055e-015
lhumerus 49.787 -0.103844 76.0152
lradius 133.915
lwrist 3.40712
lhand 18.0904 36.4794
lfingers 7.12502
lthumb 42.7522 60.8123
rfemur -40.8908 11.9612 10.7768
rtibia 26.0701
rfoot -10.4882 -11.2994
rtoes -27.9233
lfemur -39.592 -12.1343 -11.2989
ltibia 25.1426
lfoot -10.6776 11.9917
ltoes -24.2561
2547
root -0.183288 17.3013 -1.48677 25.6631 -2.69664 1.43898
lowerback 13.0413 0.385315 1.41261
upperback -1.97177 0.896705 1.62927
thorax -9.47124 0.405291 0.762681
lowerneck -18.4867 -0.598105 -8.43154
upperneck 1.94586 1.13687 -0.792155
head 3.45089 0.425376 1.17741
rclavicle -1.15295e-014 -3.18055e-015
rhumerus 31.3914 -43.8189 -126.536
rradius 14.2224
rwrist 126.518
rhand -51.7491 47.4919
rfingers 7.12502
rthumb -24.267 19.0077
lclavicle -1.15295e-014 -3.18055e-015
lhumerus 50.25 0.274415 75.4815
lradius 134.662
lwrist 2.4643
lhand 18.1236 36.3702
lfingers 7.12502
lthumb 42.7832 60.6923
rfemur -40.9126 11.9281 10.7856
rtibia 26.086
rfoot -10.513 -11.2755
rtoes -27.6505
lfemur -39.6147 -12.134 -11.3057
ltibia 25.1436
lfoot -10.5809 12.0424
ltoes -24.883
2548
root -0.183119 17.3015 -1.48773 25.6398 -2.70383 1.50246
lowerback 13.0712 0.384801 1.39667
upperback -1.95017 0.898016 1.67662
thorax -9.46606 0.408297 0.822093
lowerneck -18.6379 -0.581892 -8.67397
upperneck 2.00823 1.22651 -0.739197
head 3.48754 0.467433 1.23916
rclavicle 4.37326e-015 1.19271e-014
rhumerus 31.3143 -43.7299 -126.42
rradius 14.2141
rwrist 126.503
rhand -51.79 47.9642
rfingers 7.12502
rthumb -24.3062 19.4853
lclavicle 4.37326e-015 1.19271e-014
lhumerus 50.7657 0.620952 74.9885
lradius 135.34
lwrist 1.46237
lhand 18.3032 36.2578
lfingers 7.12502
lthumb 42.9512 60.521
rfemur -40.8695 11.9265 10.7068
rtibia 26.103
rfoot -10.6917 -11.2436
rtoes -26.8019
lfemur -39.6079 -12.1773 -11.3608
ltibia 25.1513
lfoot -10.5163 12.0096
ltoes -24.6894
2549
root -0.181536 17.3012 -1.48819 25.6085 -2.67459 1.51908
lowerback 13.1215 0.322551 1.39059
upperback -1.93436 0.825462 1.79026
thorax -9.47967 0.377322 0.962752
lowerneck -18.8069 -0.499457 -8.90423
upperneck 2.10052 1.40766 -0.726673
head 3.5328 0.551285 1.29397
rclavicle -4.77083e-015 4.77083e-015
rhumerus 31.0382 -43.4956 -126.196
rradius 14.2541
rwrist 126.48
rhand -51.6898 48.6732
rfingers 7.12502
rthumb -24.2101 20.1814
lclavicle -4.77083e-015 4.77083e-015
lhumerus 51.1021 0.996161 74.3091
lradius 135.921
lwrist 0.17978
lhand 17.9659 36.1215
lfingers 7.12502
lthumb 42.6357 60.4949
rfemur -40.7951 11.8826 10.713
rtibia 26.1003
rfoot -10.8923 -11.2202
rtoes -25.9677
lfemur -39.5898 -12.2279 -11.3625
ltibia 25.1554
lfoot -10.5062 11.9409
ltoes -24.1983
2550
root -0.181245 17.3011 -1.48647 25.5702 -2.66344 1.49248
lowerback 13.1671 0.285808 1.39789
upperback -1.92117 0.787186 1.88321
thorax -9.49294 0.361437 1.06654
lowerneck -18.9717 -0.390414 -8.93374
upperneck 2.18592 1.588 -0.839435
head 3.57796 0.629752 1.27859
rclavicle -7.95139e-016 -1.35174e-014
rhumerus 30.8146 -43.328 -126.042
rradius 14.2919
rwrist 126.486
rhand -51.5555 48.9725
rfingers 7.12502
rthumb -24.0814 20.4636
lclavicle -7.95139e-016 -1.35174e-014
lhumerus 51.3803 1.26152 73.5421
lradius 136.483
lwrist -0.99933
lhand 17.4426 35.785
lfingers 7.12502
lthumb 42.1457 60.326
rfemur -40.7465 11.8768 10.7721
rtibia 26.0627
rfoot -10.7069 -11.241
rtoes -26.9016
lfemur -39.539 -12.2249 -11.3466
ltibia 25.1586
lfoot -10.576 11.9592
ltoes -24.2623
2551
root -0.184211 17.3036 -1.48411 25.5189 -2.73359 1.39211
lowerback 13.2456 0.369268 1.49735
upperback -1.93175 0.913272 1.83912
thorax -9.54891 0.41489 0.936066
lowerneck -18.8378 -0.328927 -8.69932
upperneck 2.05379 1.60524 -0.943267
head 3.51914 0.640599 1.21035
rclavicle 3.18055e-015 -2.22639e-014
rhumerus 30.8735 -43.4983 -126.178
rradius 14.2767
rwrist 126.557
rhand -51.5055 48.7024
rfingers 7.12502
rthumb -24.0334 20.1872
lclavicle 3.18055e-015 -2.22639e-014
lhumerus 51.6948 1.2219 72.7667
lradius 137.044
lwrist -1.98522
lhand 16.9855 35.4683
lfingers 7.12502
lthumb 41.7172 60.1524
rfemur -40.6881 12.018 10.8564
rtibia 25.9934
rfoot -10.5451 -11.2497
rtoes -27.5466
lfemur -39.435 -12.1368 -11.2847
ltibia 25.1658
lfoot -10.6494 11.9621
ltoes -24.4597
2552
root -0.185417 17.3056 -1.4838 25.5006 -2.77481 1.31897
lowerback 13.3167 0.459112 1.6592
upperback -1.97381 1.05744 1.77704
thorax -9.63322 0.472683 0.746954
lowerneck -18.5664 -0.319003 -8.54948
upperneck 1.83715 1.55172 -0.979887
head 3.41465 0.623024 1.16991
rclavicle -9.93923e-015 3.18055e-015
rhumerus 30.9108 -43.7429 -126.284
rradius 14.3201
rwrist 126.755
rhand -51.5332 48.4177
rfingers 7.12502
rthumb -24.06 19.906
lclavicle -9.93923e-015 3.18055e-015
lhumerus 51.9056 1.14272 72.0423
lradius 137.626
lwrist -2.90117
lhand 16.4418 35.2031
lfingers 7.12502
lthumb 41.207 60.0534
rfemur -40.6439 12.1466 10.891
rtibia 25.9186
rfoot -10.5001 -11.2915
rtoes -27.2452
lfemur -39.3901 -12.07 -11.2337
ltibia 25.1634
lfoot -10.7819 11.9171
ltoes -23.8637
2553
root -0.185253 17.3067 -1.48478 25.4888 -2.7788 1.29936
lowerback 13.3531 0.483304 1.72151
upperback -1.99915 1.10415 1.80002
thorax -9.68185 0.492051 0.72637
lowerneck -18.4089 -0.259252 -8.47568
upperneck 1.68866 1.60108 -1.09317
head 3.34492 0.648136 1.1261
rclavicle -4.77083e-015 -4.77083e-015
rhumerus 30.796 -43.7836 -126.218
rradius 14.3538
rwrist 126.914
rhand -51.7276 48.4876
rfingers 7.12502
rthumb -24.2464 20.0007
lclavicle -4.77083e-015 -4.77083e-015
lhumerus 51.9935 1.12013 71.2193
lradius 138.289
lwrist -3.80429
lhand 15.642 35.277
lfingers 7.12502
lthumb 40.4557 60.3639
rfemur -40.5987 12.1938 10.8943
rtibia 25.8497
rfoot -10.4581 -11.3243
rtoes -27.1286
lfemur -39.3787 -12.0564 -11.2184
ltibia 25.1575
lfoot -10.9047 11.9013
ltoes -23.1123
